# xmcd CD database file
#
# Track frame offsets:
#	150
#	12402
#	26502
#	39161
#	52253
#	67208
#	79417
#	93562
#	106716
#	124343
#	135389
#	149376
#	162097
#	174213
#	187708
#	242560
#	256467
#	268048
#	284550
#	305520
#	317555
#
# Disc length: 4443 seconds
#
# Revision: 1
# Processed by: cddbd v1.5.2PL0 Copyright (c) Steve Scherf et al.
# Submitted via: CDex 1.81
#
DISCID=26115915
DTITLE=Various Artist - JazzPiano History - [CD 09) Swing
DYEAR=1900
DGENRE=Jazz
TTITLE0=Fats Waller and His Buddies - The Minor Drag
TTITLE1=Fats Waller and His Rhythm - Dinah
TTITLE2=Fats Waller and His Rhythm - 12th Street Rag
TTITLE3=Fats Waller and His Rhythm - Sweet Sue
TTITLE4=Fats Waller and His Rhythm - Truckin'
TTITLE5=Fats Waller and His Rhythm - Fractious Fingering
TTITLE6=A Jam Session at Victor's - Honeystuckle Rose
TTITLE7=Fats Waller - London Suite - Bond Street
TTITLE8=Fats Waller and His Rhythm - Ain't Misbehavin'
TTITLE9=Pee Wee, Zutty and James P. - Everybody Loves Me Baby
TTITLE10=Jimmy Johnson and His Orchestra - Old Fashioned Love
TTITLE11=James P. Johnson - If I Could Be With One Hour Tonight
TTITLE12=Willie (The Lion) Smith and His Cubs - Harlem Joys
TTITLE13=Willie (The Lion) Smith and Joe Bushkin - The Lion and The Lamb
TTITLE14=Jess Stacy and Benny Goodman and His Orchestra - Sing, Sing, Sing
TTITLE15=Jess Stacy - Ramblin'
TTITLE16=Jess Stacy - Complanin'
TTITLE17=Jess Stacy - (I Got A Woman Crazy For Me) She's Funny That Way
TTITLE18=Jess Stacy - Ec-Stacy
TTITLE19=Billy Kyle - Finishing Up A Date
TTITLE20=Billy Kyle and Louis Armstrong All Stars - St. Louis Blues
EXTD=
EXTT0=
EXTT1=
EXTT2=
EXTT3=
EXTT4=
EXTT5=
EXTT6=
EXTT7=
EXTT8=
EXTT9=
EXTT10=
EXTT11=
EXTT12=
EXTT13=
EXTT14=
EXTT15=
EXTT16=
EXTT17=
EXTT18=
EXTT19=
EXTT20=
PLAYORDER=
